<svg xmlns="http://www.w3.org/2000/svg" xml:space="preserve" width="1000px" height="1000px" x="0px" y="0px" viewBox="0 0 1000 1000"><path fill="#3D414D" d="M1000 500c0 276.142-223.858 500-500 500S0 776.142 0 500C0 223.825 223.858 0 500 0s500 223.825 500 500"/><path fill="#FFF" d="M287.992 405.275a66.667 66.667 0 1 0 0-133.333 66.667 66.667 0 0 0 0 133.333m433.525-.033c36.816 0 66.666-29.817 66.666-66.667a66.642 66.642 0 0 0-66.666-66.633c-36.85 0-66.667 29.816-66.667 66.633 0 36.85 29.817 66.667 66.667 66.667M554.658 805.275h66.667V138.608h-66.667zm-267.091-200a66.667 66.667 0 0 0-66.667 66.667c0 36.85 29.817 66.666 66.667 66.666 36.816 0 66.666-29.816 66.666-66.666 0-36.784-29.85-66.667-66.666-66.667m433.95 0a66.667 66.667 0 0 0-66.667 66.667c0 36.85 29.817 66.666 66.667 66.666 36.816 0 66.666-29.816 66.666-66.666 0-36.784-29.85-66.667-66.666-66.667"/><path fill="#FFF" d="M217.933 538.608H404.75v266.667h66.667V471.942H217.933Z"/></svg>